<svg xmlns="http://www.w3.org/2000/svg" width="900" height="900" viewBox="0 0 900 900">
  <g fill="none" stroke="#1c1917" stroke-width="1.1" stroke-linecap="round">
    <path d="M-40 220 C 120 140, 260 300, 420 230 S 720 120, 940 240"/>
    <path d="M-40 260 C 130 190, 250 330, 430 270 S 730 170, 940 280"/>
    <path d="M-40 300 C 150 240, 250 360, 440 310 S 740 220, 940 320"/>
    <path d="M-40 345 C 170 295, 250 400, 450 355 S 750 275, 940 365"/>
    <path d="M-40 395 C 190 350, 250 445, 460 405 S 760 335, 940 415"/>

    <path d="M120 470 C 240 440, 320 540, 470 500 S 700 430, 820 510"/>
    <path d="M150 505 C 250 480, 330 565, 470 535 S 690 470, 800 540"/>
    <path d="M185 545 C 270 525, 345 595, 470 570 S 680 515, 780 575"/>
    <path d="M225 590 C 300 575, 360 630, 470 610 S 670 565, 745 615"/>

    <path d="M-40 600 C 80 560, 160 660, 300 620 S 520 560, 620 630"/>
    <path d="M-40 650 C 90 615, 165 705, 300 670 S 520 615, 615 680"/>
    <path d="M-40 705 C 100 675, 170 755, 300 725 S 520 675, 610 735"/>

    <path d="M560 660 C 660 630, 740 720, 860 690 S 980 640, 1040 700"/>
    <path d="M580 705 C 670 680, 745 760, 860 735 S 975 690, 1030 745"/>
    <path d="M600 750 C 680 730, 750 800, 860 778 S 970 740, 1020 790"/>

    <path d="M40 60 C 160 20, 280 110, 420 70 S 700 0, 880 80"/>
    <path d="M60 105 C 170 70, 285 150, 420 115 S 700 55, 870 125"/>
  </g>
</svg>
